<svg width="52" height="12" viewBox="0 0 52 12" fill="none" xmlns="http://www.w3.org/2000/svg">
<path d="M5.3252 1.04688H6.64453V8.09473C6.64453 9.0472 6.35742 9.79232 5.7832 10.3301C5.21354 10.8678 4.45247 11.1367 3.5 11.1367C2.51107 11.1367 1.74089 10.8838 1.18945 10.3779C0.638021 9.87207 0.362305 9.16341 0.362305 8.25195H1.6748C1.6748 8.82161 1.82975 9.26595 2.13965 9.58496C2.4541 9.90397 2.90755 10.0635 3.5 10.0635C4.04232 10.0635 4.47982 9.89258 4.8125 9.55078C5.14974 9.20898 5.32064 8.73047 5.3252 8.11523V1.04688ZM16.5361 6.34473C16.5361 7.31999 16.3721 8.1722 16.0439 8.90137C15.7158 9.62598 15.251 10.1797 14.6494 10.5625C14.0479 10.9453 13.346 11.1367 12.5439 11.1367C11.7601 11.1367 11.0651 10.9453 10.459 10.5625C9.85286 10.1751 9.38118 9.62598 9.04395 8.91504C8.71126 8.19954 8.54036 7.3724 8.53125 6.43359V5.71582C8.53125 4.75879 8.69759 3.91341 9.03027 3.17969C9.36296 2.44596 9.83236 1.88542 10.4385 1.49805C11.0492 1.10612 11.7464 0.910156 12.5303 0.910156C13.3278 0.910156 14.0296 1.10384 14.6357 1.49121C15.2464 1.87402 15.7158 2.43229 16.0439 3.16602C16.3721 3.89518 16.5361 4.74512 16.5361 5.71582V6.34473ZM15.2305 5.70215C15.2305 4.52181 14.9935 3.61719 14.5195 2.98828C14.0456 2.35482 13.3825 2.03809 12.5303 2.03809C11.7008 2.03809 11.0469 2.35482 10.5684 2.98828C10.0944 3.61719 9.85059 4.49219 9.83691 5.61328V6.34473C9.83691 7.48861 10.0762 8.38867 10.5547 9.04492C11.0378 9.69661 11.7008 10.0225 12.5439 10.0225C13.3916 10.0225 14.0479 9.71484 14.5127 9.09961C14.9775 8.47982 15.2168 7.59342 15.2305 6.44043V5.70215ZM19.9131 11H18.6006V1.04688H19.9131V11ZM29.9688 11H28.6494L23.6387 3.33008V11H22.3193V1.04688H23.6387L28.6631 8.75098V1.04688H29.9688V11ZM42.7793 1.04688V7.81445C42.7747 8.75326 42.4785 9.52116 41.8906 10.1182C41.3073 10.7152 40.5143 11.0501 39.5117 11.123L39.1631 11.1367C38.0739 11.1367 37.2057 10.8428 36.5586 10.2549C35.9115 9.66699 35.5833 8.85807 35.5742 7.82812V1.04688H36.873V7.78711C36.873 8.50716 37.0713 9.06771 37.4678 9.46875C37.8643 9.86523 38.4294 10.0635 39.1631 10.0635C39.9059 10.0635 40.4733 9.86523 40.8652 9.46875C41.2617 9.07227 41.46 8.514 41.46 7.79395V1.04688H42.7793ZM47.7832 6.56348C46.6576 6.23991 45.8372 5.84342 45.3223 5.37402C44.8118 4.90007 44.5566 4.31673 44.5566 3.62402C44.5566 2.84017 44.8688 2.19303 45.4932 1.68262C46.1221 1.16764 46.9378 0.910156 47.9404 0.910156C48.624 0.910156 49.2324 1.04232 49.7656 1.30664C50.3034 1.57096 50.7181 1.93555 51.0098 2.40039C51.306 2.86523 51.4541 3.37337 51.4541 3.9248H50.1348C50.1348 3.32324 49.9434 2.85156 49.5605 2.50977C49.1777 2.16341 48.6377 1.99023 47.9404 1.99023C47.2933 1.99023 46.7874 2.13379 46.4229 2.4209C46.0628 2.70345 45.8828 3.09766 45.8828 3.60352C45.8828 4.00911 46.0537 4.35319 46.3955 4.63574C46.7419 4.91374 47.3275 5.16895 48.1523 5.40137C48.9818 5.63379 49.6289 5.89128 50.0938 6.17383C50.5632 6.45182 50.9095 6.77767 51.1328 7.15137C51.3607 7.52507 51.4746 7.96484 51.4746 8.4707C51.4746 9.27734 51.1602 9.92448 50.5312 10.4121C49.9023 10.8952 49.0615 11.1367 48.0088 11.1367C47.3252 11.1367 46.6872 11.0068 46.0947 10.7471C45.5023 10.4827 45.0443 10.1227 44.7207 9.66699C44.4017 9.21126 44.2422 8.69401 44.2422 8.11523H45.5615C45.5615 8.7168 45.7826 9.19303 46.2246 9.54395C46.6712 9.8903 47.266 10.0635 48.0088 10.0635C48.7015 10.0635 49.2324 9.9222 49.6016 9.63965C49.9707 9.3571 50.1553 8.97201 50.1553 8.48438C50.1553 7.99674 49.9844 7.62077 49.6426 7.35645C49.3008 7.08757 48.681 6.82324 47.7832 6.56348Z" fill="#232961"/>
</svg>
